<svg width="130" height="47" viewBox="0 0 130 47" fill="none" xmlns="http://www.w3.org/2000/svg">
<rect x="1.5" y="1.5" width="127" height="44" fill="white" stroke="#FF1744" stroke-width="3"/>
<path d="M22.6289 28.0449H15.6943L14.376 32H10.1704L17.3159 12.8047H20.981L28.166 32H23.9604L22.6289 28.0449ZM16.7622 24.8413H21.561L19.1484 17.6562L16.7622 24.8413ZM29.1152 24.7622C29.1152 22.5386 29.6118 20.7676 30.605 19.4492C31.6069 18.1309 32.9736 17.4717 34.7051 17.4717C36.0938 17.4717 37.2407 17.9902 38.146 19.0273V11.75H41.9692V32H38.5283L38.3438 30.4839C37.3945 31.6704 36.1729 32.2637 34.6787 32.2637C33 32.2637 31.6509 31.6045 30.6313 30.2861C29.6206 28.959 29.1152 27.1177 29.1152 24.7622ZM32.9253 25.0391C32.9253 26.375 33.1582 27.3989 33.624 28.1108C34.0898 28.8228 34.7666 29.1787 35.6543 29.1787C36.832 29.1787 37.6626 28.6821 38.146 27.689V22.0596C37.6714 21.0664 36.8496 20.5698 35.6807 20.5698C33.8438 20.5698 32.9253 22.0596 32.9253 25.0391ZM44.3291 24.7622C44.3291 22.5386 44.8257 20.7676 45.8188 19.4492C46.8208 18.1309 48.1875 17.4717 49.9189 17.4717C51.3076 17.4717 52.4546 17.9902 53.3599 19.0273V11.75H57.1831V32H53.7422L53.5576 30.4839C52.6084 31.6704 51.3867 32.2637 49.8926 32.2637C48.2139 32.2637 46.8647 31.6045 45.8452 30.2861C44.8345 28.959 44.3291 27.1177 44.3291 24.7622ZM48.1392 25.0391C48.1392 26.375 48.3721 27.3989 48.8379 28.1108C49.3037 28.8228 49.9805 29.1787 50.8682 29.1787C52.0459 29.1787 52.8765 28.6821 53.3599 27.689V22.0596C52.8853 21.0664 52.0635 20.5698 50.8945 20.5698C49.0576 20.5698 48.1392 22.0596 48.1392 25.0391ZM82.7197 32H78.7646L71.0654 19.3701V32H67.1104V12.8047H71.0654L78.7778 25.4609V12.8047H82.7197V32ZM92.4888 32.2637C90.397 32.2637 88.6919 31.6221 87.3735 30.3389C86.064 29.0557 85.4092 27.3462 85.4092 25.2104V24.8413C85.4092 23.4087 85.686 22.1299 86.2397 21.0049C86.7935 19.8711 87.5757 19.001 88.5864 18.3945C89.606 17.7793 90.7661 17.4717 92.0669 17.4717C94.0181 17.4717 95.5518 18.0869 96.668 19.3174C97.793 20.5479 98.3555 22.2925 98.3555 24.5513V26.1069H89.272C89.395 27.0386 89.7642 27.7856 90.3794 28.3481C91.0034 28.9106 91.79 29.1919 92.7393 29.1919C94.207 29.1919 95.354 28.6602 96.1802 27.5967L98.0522 29.6929C97.481 30.5015 96.7075 31.1343 95.7319 31.5913C94.7563 32.0396 93.6753 32.2637 92.4888 32.2637ZM92.0537 20.5566C91.2979 20.5566 90.6826 20.8115 90.208 21.3213C89.7422 21.8311 89.4434 22.5605 89.3115 23.5098H94.6113V23.2065C94.5938 22.3628 94.3652 21.7124 93.9258 21.2554C93.4863 20.7896 92.8623 20.5566 92.0537 20.5566ZM112.937 26.8188L114.809 17.7354H118.487L114.848 32H111.658L108.955 23.022L106.252 32H103.075L99.4365 17.7354H103.115L104.974 26.8057L107.584 17.7354H110.339L112.937 26.8188Z" fill="#FF1744"/>
</svg>
