<svg width="345" height="69" viewBox="0 0 345 69" fill="none" xmlns="http://www.w3.org/2000/svg">
<g clip-path="url(#clip0)">
<rect x="2.5" y="3.5" width="173" height="61" fill="white" stroke="#FF1744" stroke-width="3"/>
<path d="M192.009 55.3628H188.502V64H185.812V55.3628H182.37V53.1919H192.009V55.3628ZM200.405 59.5005H195.942V61.8477H201.193V64H193.252V53.1919H201.203V55.3628H195.942V57.3389H200.405V59.5005ZM209.125 61.9404H204.941L204.181 64H201.49L205.767 53.1919H208.291L212.604 64H209.896L209.125 61.9404ZM205.665 59.9736H208.383L207.02 56.3184L205.665 59.9736ZM217.048 53.1919L219.748 60.4746L222.429 53.1919H225.982V64H223.283V61.8105L223.561 56.1328L220.639 64H218.848L215.935 56.1606L216.213 61.8105V64H213.514V53.1919H217.048ZM236.104 53.1919L238.804 60.4746L241.485 53.1919H245.038V64H242.338V61.8105L242.617 56.1328L239.694 64H237.904L234.991 56.1606L235.269 61.8105V64H232.569V53.1919H236.104ZM253.601 61.9404H249.417L248.656 64H245.966L250.243 53.1919H252.766L257.08 64H254.371L253.601 61.9404ZM250.141 59.9736H252.859L251.495 56.3184L250.141 59.9736ZM267.628 64H264.947L260.68 57.2646V64H257.989V53.1919H260.68L264.947 59.9365V53.1919H267.628V64ZM276.182 61.9404H271.998L271.237 64H268.547L272.824 53.1919H275.347L279.661 64H276.952L276.182 61.9404ZM272.722 59.9736H275.44L274.076 56.3184L272.722 59.9736ZM289.866 62.6919C289.446 63.131 288.83 63.4836 288.02 63.7495C287.216 64.0155 286.307 64.1484 285.292 64.1484C283.746 64.1484 282.519 63.6969 281.609 62.7939C280.7 61.8848 280.23 60.6354 280.199 59.0459V58.3223C280.199 56.6895 280.645 55.403 281.535 54.4629C282.426 53.5166 283.626 53.0435 285.135 53.0435C286.557 53.0435 287.664 53.3558 288.456 53.9805C289.248 54.6051 289.715 55.5422 289.857 56.7915H287.269C287.182 56.2658 286.984 55.87 286.675 55.604C286.372 55.3381 285.889 55.2051 285.228 55.2051C284.485 55.2051 283.91 55.4618 283.502 55.9751C283.1 56.4884 282.896 57.2492 282.89 58.2573V58.8882C282.89 59.9458 283.103 60.7282 283.53 61.2354C283.957 61.7425 284.603 61.9961 285.469 61.9961C286.248 61.9961 286.814 61.8662 287.167 61.6064V60.0664H285.088V58.1646H289.866V62.6919ZM298.596 59.5005H294.134V61.8477H299.385V64H291.443V53.1919H299.394V55.3628H294.134V57.3389H298.596V59.5005ZM304.144 53.1919L306.844 60.4746L309.525 53.1919H313.078V64H310.378V61.8105L310.657 56.1328L307.734 64H305.944L303.031 56.1606L303.309 61.8105V64H300.609V53.1919H304.144ZM322.086 59.5005H317.624V61.8477H322.875V64H314.934V53.1919H322.884V55.3628H317.624V57.3389H322.086V59.5005ZM333.739 64H331.058L326.79 57.2646V64H324.1V53.1919H326.79L331.058 59.9365V53.1919H333.739V64ZM344.603 55.3628H341.096V64H338.405V55.3628H334.963V53.1919H344.603V55.3628Z" fill="#FF1744"/>
<path d="M46.3896 21.3472H36.5898V48H29.998V21.3472H20.3301V16.0078H46.3896V21.3472ZM44.1924 35.8931C44.1924 33.5347 44.6465 31.4326 45.5547 29.5869C46.4629 27.7412 47.7666 26.313 49.4658 25.3022C51.1797 24.2915 53.1646 23.7861 55.4204 23.7861C58.6284 23.7861 61.2432 24.7676 63.2646 26.7305C65.3008 28.6934 66.436 31.3594 66.6704 34.7285L66.7144 36.3545C66.7144 40.002 65.6963 42.9316 63.6602 45.1436C61.624 47.3408 58.8921 48.4395 55.4644 48.4395C52.0366 48.4395 49.2974 47.3408 47.2466 45.1436C45.2104 42.9463 44.1924 39.958 44.1924 36.1787V35.8931ZM50.5425 36.3545C50.5425 38.6104 50.9673 40.3389 51.8169 41.54C52.6665 42.7266 53.8823 43.3198 55.4644 43.3198C57.0024 43.3198 58.2036 42.7339 59.0679 41.562C59.9321 40.3755 60.3643 38.4858 60.3643 35.8931C60.3643 33.6812 59.9321 31.9673 59.0679 30.7515C58.2036 29.5356 56.9878 28.9277 55.4204 28.9277C53.8677 28.9277 52.6665 29.5356 51.8169 30.7515C50.9673 31.9526 50.5425 33.8203 50.5425 36.3545ZM82.249 48V16.0078H92.0928C94.9053 16.0078 97.4175 16.645 99.6294 17.9194C101.856 19.1792 103.592 20.981 104.837 23.3247C106.082 25.6538 106.705 28.3052 106.705 31.2788V32.751C106.705 35.7246 106.089 38.3687 104.859 40.6831C103.643 42.9976 101.922 44.792 99.6953 46.0664C97.4688 47.3408 94.9565 47.9854 92.1587 48H82.249ZM88.8408 21.3472V42.7046H92.0269C94.605 42.7046 96.5752 41.8623 97.9375 40.1777C99.2998 38.4932 99.9956 36.0835 100.025 32.9487V31.2568C100.025 28.0049 99.3511 25.5439 98.0034 23.874C96.6558 22.1895 94.6855 21.3472 92.0928 21.3472H88.8408ZM110.11 35.8931C110.11 33.5347 110.564 31.4326 111.473 29.5869C112.381 27.7412 113.685 26.313 115.384 25.3022C117.098 24.2915 119.083 23.7861 121.338 23.7861C124.546 23.7861 127.161 24.7676 129.183 26.7305C131.219 28.6934 132.354 31.3594 132.588 34.7285L132.632 36.3545C132.632 40.002 131.614 42.9316 129.578 45.1436C127.542 47.3408 124.81 48.4395 121.382 48.4395C117.955 48.4395 115.215 47.3408 113.165 45.1436C111.128 42.9463 110.11 39.958 110.11 36.1787V35.8931ZM116.46 36.3545C116.46 38.6104 116.885 40.3389 117.735 41.54C118.584 42.7266 119.8 43.3198 121.382 43.3198C122.92 43.3198 124.122 42.7339 124.986 41.562C125.85 40.3755 126.282 38.4858 126.282 35.8931C126.282 33.6812 125.85 31.9673 124.986 30.7515C124.122 29.5356 122.906 28.9277 121.338 28.9277C119.786 28.9277 118.584 29.5356 117.735 30.7515C116.885 31.9526 116.46 33.8203 116.46 36.3545ZM135.555 35.8931C135.555 33.5347 136.009 31.4326 136.917 29.5869C137.825 27.7412 139.129 26.313 140.828 25.3022C142.542 24.2915 144.527 23.7861 146.783 23.7861C149.991 23.7861 152.605 24.7676 154.627 26.7305C156.663 28.6934 157.798 31.3594 158.033 34.7285L158.077 36.3545C158.077 40.002 157.059 42.9316 155.022 45.1436C152.986 47.3408 150.254 48.4395 146.827 48.4395C143.399 48.4395 140.66 47.3408 138.609 45.1436C136.573 42.9463 135.555 39.958 135.555 36.1787V35.8931ZM141.905 36.3545C141.905 38.6104 142.33 40.3389 143.179 41.54C144.029 42.7266 145.245 43.3198 146.827 43.3198C148.365 43.3198 149.566 42.7339 150.43 41.562C151.294 40.3755 151.727 38.4858 151.727 35.8931C151.727 33.6812 151.294 31.9673 150.43 30.7515C149.566 29.5356 148.35 28.9277 146.783 28.9277C145.23 28.9277 144.029 29.5356 143.179 30.7515C142.33 31.9526 141.905 33.8203 141.905 36.3545Z" fill="#FF1744"/>
</g>
<defs>
<clipPath id="clip0">
<rect width="345" height="69" fill="white"/>
</clipPath>
</defs>
</svg>
